<svg height="1024pt" preserveAspectRatio="xMidYMid meet" viewBox="0 0 1024 1024" width="1024pt" xmlns="http://www.w3.org/2000/svg"><g transform="matrix(.1 0 0 -.1 0 1024)"><path d="m0 5120v-5120h5120 5120v5120 5120h-5120-5120zm2500 1185v-185h-310-310v-855-855l-217 2-218 3-3 853-2 852h-310-310v185 185h840 840zm1611 162c227-54 395-186 503-396 85-164 119-332 119-586 2-540-224-928-603-1036-111-32-265-40-715-37l-430 3-3 1038-2 1038 532-4c442-3 544-6 599-20zm2282-19c8-24 172-489 366-1035 193-545 351-994 351-997s-105-6-234-6h-235l-41 133c-23 72-53 169-68 215l-26 82h-381-380l-71-212-70-213-228-3c-214-2-228-1-224 15 8 29 728 2046 734 2055 3 4 115 8 249 8h243zm1637-353v-395h405 405v395 395h215 215v-1040-1040h-215-215v465 465h-405-405v-465-465h-215-215v1040 1040h215 215z"/><path d="m3410 5454v-675l258 3c313 4 336 10 443 117 139 140 200 375 178 688-14 214-67 365-155 441-91 81-201 102-526 102h-198z"/><path d="m5994 5600-131-400h258c143 0 259 3 259 7 0 13-243 778-249 785-4 4-65-172-137-392z"/></g></svg>