<?xml version="1.0" standalone="no"?>
<!DOCTYPE svg PUBLIC "-//W3C//DTD SVG 20010904//EN"
 "http://www.w3.org/TR/2001/REC-SVG-20010904/DTD/svg10.dtd">
<svg version="1.0" xmlns="http://www.w3.org/2000/svg"
 width="1240.000000pt" height="1240.000000pt" viewBox="0 0 1240.000000 1240.000000"
 preserveAspectRatio="xMidYMid meet">
<metadata>
Created by potrace 1.11, written by Peter Selinger 2001-2013
</metadata>
<g transform="translate(0.000000,1240.000000) scale(0.100000,-0.100000)"
fill="#000000" stroke="none">
<path d="M0 6200 l0 -6200 6200 0 6200 0 0 6200 0 6200 -6200 0 -6200 0 0
-6200z m5630 4240 c24 -24 26 -67 3 -92 -15 -17 -38 -18 -306 -18 -256 0 -293
2 -309 17 -24 21 -23 68 2 93 19 19 33 20 305 20 272 0 286 -1 305 -20z m1753
3 c34 -39 22 -96 -24 -112 -42 -15 -527 -15 -566 0 -34 13 -43 25 -43 66 0 61
11 63 331 63 260 0 287 -2 302 -17z m-2513 -283 c24 -24 26 -67 3 -92 -15 -17
-40 -18 -386 -18 -412 0 -407 -1 -407 66 0 64 2 64 407 64 350 0 364 -1 383
-20z m1070 0 c24 -24 26 -67 3 -92 -15 -17 -38 -18 -312 -18 -163 0 -301 4
-307 8 -13 9 -34 46 -34 62 0 6 11 22 25 35 l24 25 291 0 c277 0 291 -1 310
-20z m1150 0 c25 -25 26 -61 1 -91 l-19 -24 -295 0 c-276 0 -296 1 -316 19
-25 23 -28 72 -4 98 15 17 38 18 315 18 285 0 299 -1 318 -20z m1223 -12 c18
-24 18 -30 7 -57 -20 -49 -48 -53 -426 -49 -320 3 -343 4 -363 22 -25 23 -28
72 -4 98 15 17 38 18 391 16 l375 -3 20 -27z m-3165 -264 c27 -18 30 -69 5
-96 -15 -17 -52 -18 -749 -18 l-733 0 -15 22 c-22 31 -20 64 4 88 20 20 33 20
743 20 638 0 725 -2 745 -16z m871 -10 c26 -33 27 -58 1 -84 -19 -19 -33 -20
-279 -20 -257 0 -260 0 -275 22 -22 31 -20 64 4 88 19 19 33 20 274 20 l255 0
20 -26z m913 9 c25 -22 23 -75 -3 -99 -20 -18 -39 -19 -276 -19 l-255 0 -19
24 c-25 30 -24 66 1 91 19 19 33 20 277 20 225 0 259 -2 275 -17z m1810 0 c25
-22 23 -75 -3 -99 -20 -18 -49 -19 -723 -22 -465 -2 -713 0 -737 7 -23 7 -40
20 -47 36 -16 34 -15 38 9 69 l20 26 731 0 c667 0 733 -1 750 -17z m-3494
-283 c27 -26 28 -64 2 -90 -20 -20 -33 -20 -908 -20 -871 0 -889 0 -907 20
-24 27 -22 70 5 92 21 17 68 18 904 18 874 0 882 0 904 -20z m769 -2 c28 -26
30 -61 3 -88 -19 -19 -33 -20 -247 -20 -126 0 -233 4 -239 8 -19 13 -34 50
-27 69 18 53 20 53 261 53 218 0 227 -1 249 -22z m863 2 c11 -11 20 -31 20
-45 0 -14 -9 -34 -20 -45 -19 -19 -33 -20 -252 -20 -201 0 -234 2 -250 17 -24
21 -23 68 2 93 19 19 33 20 250 20 217 0 231 -1 250 -20z m2076 12 c37 -24 39
-93 4 -112 -12 -6 -350 -10 -906 -10 -812 0 -889 1 -906 17 -24 21 -23 68 2
93 20 20 33 20 908 20 488 0 892 -4 898 -8z m-2936 -294 c25 -28 26 -62 0 -88
-20 -20 -33 -20 -1309 -20 l-1290 0 -20 27 c-23 28 -21 54 7 86 14 16 89 17
1303 17 l1288 0 21 -22z m2980 2 c11 -11 20 -31 20 -45 0 -14 -9 -34 -20 -45
-20 -20 -33 -20 -1312 -20 -1188 0 -1293 1 -1310 17 -24 21 -23 68 2 93 20 20
33 20 1310 20 1277 0 1290 0 1310 -20z m-5772 -276 c27 -18 30 -69 5 -96 -14
-16 -34 -18 -190 -18 -160 0 -175 2 -193 20 -11 11 -20 31 -20 45 0 14 9 34
20 45 18 18 33 20 188 20 135 0 172 -3 190 -16z m2792 -4 c11 -11 20 -31 20
-45 0 -14 -9 -34 -20 -45 -20 -20 -33 -20 -1219 -20 l-1200 0 -20 27 c-23 28
-21 54 7 86 14 16 85 17 1214 17 1185 0 1198 0 1218 -20z m2800 0 c11 -11 20
-31 20 -45 0 -14 -9 -34 -20 -45 -20 -20 -33 -20 -1222 -20 -1104 0 -1203 1
-1220 17 -22 20 -23 61 -2 91 l15 22 1205 0 c1191 0 1204 0 1224 -20z m732 3
c22 -20 23 -70 1 -95 -14 -16 -34 -18 -194 -18 l-178 0 -20 27 c-23 28 -21 54
7 86 13 15 36 17 190 17 149 0 178 -2 194 -17z m-6112 -283 c11 -11 20 -31 20
-45 0 -14 -9 -34 -20 -45 -19 -19 -33 -20 -410 -20 -377 0 -391 1 -410 20 -11
11 -20 31 -20 45 0 14 9 34 20 45 19 19 33 20 410 20 377 0 391 -1 410 -20z
m2580 0 c11 -11 20 -31 20 -45 0 -14 -9 -34 -20 -45 -20 -20 -33 -20 -623 -20
-529 0 -605 2 -625 16 -27 18 -30 69 -5 96 15 17 48 18 625 18 595 0 608 0
628 -20z m1615 0 c9 -10 18 -31 18 -45 0 -14 -9 -35 -18 -45 -18 -19 -34 -20
-631 -20 l-613 0 -15 22 c-21 29 -20 67 1 90 15 17 48 18 628 18 596 0 612 -1
630 -20z m2147 3 c22 -20 23 -70 1 -95 -15 -17 -41 -18 -414 -18 l-398 0 -15
22 c-21 29 -20 67 1 90 15 17 41 18 411 18 354 0 397 -2 414 -17z m-5910 -280
c10 -9 18 -30 18 -49 0 -67 30 -64 -716 -64 -654 0 -671 0 -689 20 -9 10 -17
31 -17 45 0 14 8 35 17 45 18 20 35 20 693 20 614 0 677 -1 694 -17z m2148 -3
c11 -11 20 -31 20 -45 0 -14 -9 -34 -20 -45 -20 -20 -33 -20 -823 -20 -787 0
-804 0 -822 20 -9 10 -17 31 -17 45 0 14 8 35 17 45 18 20 35 20 822 20 790 0
803 0 823 -20z m2010 0 c26 -26 25 -60 0 -88 l-21 -22 -809 0 -809 0 -15 22
c-21 29 -20 67 1 90 15 17 54 18 825 18 795 0 808 0 828 -20z m1890 0 c26 -26
25 -60 0 -88 l-21 -22 -678 0 c-661 0 -678 0 -696 20 -9 10 -17 31 -17 45 0
14 8 35 17 45 18 20 35 20 697 20 665 0 678 0 698 -20z m-5980 -280 c26 -26
26 -64 0 -90 -20 -20 -31 -20 -766 -18 l-747 3 -19 26 c-21 28 -18 57 8 84 14
13 110 15 760 15 731 0 744 0 764 -20z m2080 0 c11 -11 20 -31 20 -45 0 -14
-9 -34 -20 -45 -20 -20 -33 -20 -890 -20 -857 0 -870 0 -890 20 -24 24 -26 67
-3 92 15 17 56 18 890 18 860 0 873 0 893 -20z m2145 0 c9 -10 18 -31 18 -45
0 -14 -9 -35 -18 -45 -18 -20 -36 -20 -892 -20 -860 0 -873 0 -893 20 -24 24
-26 67 -3 92 15 17 56 18 893 18 859 0 877 0 895 -20z m1829 -2 c22 -31 20
-64 -4 -88 -20 -20 -33 -20 -767 -20 -681 0 -748 1 -765 17 -22 20 -23 70 -1
95 15 17 52 18 769 18 l753 0 15 -22z m-2029 -262 c22 -9 37 -24 40 -39 7 -25
-8 -66 -29 -79 -6 -4 -363 -8 -793 -8 -770 0 -783 0 -803 20 -38 38 -19 100
35 113 11 2 357 5 768 6 629 1 753 -1 782 -13z m2022 4 c51 -18 62 -69 25
-112 -14 -17 -66 -18 -834 -18 -805 0 -818 0 -838 20 -38 38 -19 100 35 113
43 10 1582 7 1612 -3z m-5927 -20 c26 -26 25 -51 -1 -84 l-20 -26 -813 0
c-718 0 -814 2 -834 16 -27 18 -30 69 -5 96 15 17 54 18 835 18 805 0 818 0
838 -20z m1960 0 c26 -26 25 -58 -2 -87 l-21 -23 -778 0 c-735 0 -778 1 -799
18 -27 22 -29 65 -5 92 18 20 35 20 802 20 770 0 783 0 803 -20z m1699 -274
c27 -24 27 -70 1 -96 -20 -20 -33 -20 -670 -20 -637 0 -650 0 -670 20 -36 36
-21 94 30 113 8 3 301 5 651 4 611 -2 638 -3 658 -21z m2259 13 c19 -6 35 -22
43 -40 10 -26 9 -34 -8 -57 l-20 -27 -922 -3 c-910 -2 -921 -2 -941 18 -36 36
-21 94 30 113 30 11 1786 7 1818 -4z m-5708 -19 c26 -26 25 -64 -2 -90 -22
-20 -30 -20 -933 -20 -808 0 -913 2 -933 16 -27 18 -30 69 -5 96 15 17 57 18
935 18 905 0 918 0 938 -20z m1750 0 c26 -26 25 -58 -2 -87 l-21 -23 -644 0
-644 0 -24 25 c-30 29 -32 58 -5 85 20 20 33 20 670 20 637 0 650 0 670 -20z
m869 -261 c46 -16 58 -73 24 -111 -15 -16 -41 -18 -265 -18 -235 0 -249 1
-268 20 -36 36 -21 94 30 113 29 11 446 7 479 -4z m1570 -13 c27 -24 27 -70 1
-96 -20 -20 -33 -20 -635 -20 -602 0 -615 0 -635 20 -36 36 -21 94 30 113 8 3
286 5 616 4 576 -2 603 -3 623 -21z m-3249 -6 c28 -28 25 -64 -6 -89 -26 -21
-35 -21 -629 -21 -594 0 -603 0 -629 21 -29 23 -33 54 -10 87 l15 22 620 0
c606 0 619 0 639 -20z m810 0 c28 -28 25 -64 -6 -89 -25 -20 -39 -21 -265 -21
-226 0 -240 1 -259 20 -24 24 -26 67 -3 92 15 16 37 18 265 18 235 0 249 -1
268 -20z m961 -279 c25 -31 24 -59 -3 -88 -21 -23 -22 -23 -300 -23 -265 0
-279 1 -298 20 -36 36 -21 94 30 113 8 3 136 5 283 4 l269 -2 19 -24z m3028 5
c27 -24 27 -70 1 -96 -20 -20 -33 -20 -1368 -20 -1272 0 -1350 1 -1364 18 -34
40 -27 89 16 110 14 7 449 10 1357 9 1299 -2 1337 -3 1358 -21z m-4887 -3 c24
-21 23 -68 -2 -93 -20 -20 -33 -20 -1359 -20 l-1338 0 -27 21 c-29 23 -33 54
-10 87 l15 22 1351 0 c1244 0 1353 -1 1370 -17z m902 -5 c23 -33 19 -64 -10
-87 -25 -20 -39 -21 -291 -21 -167 0 -272 4 -284 11 -41 21 -44 86 -5 111 6 4
138 8 293 8 280 0 282 0 297 -22z m1075 -272 c27 -24 27 -70 1 -96 -19 -19
-33 -20 -360 -20 -327 0 -341 1 -360 20 -36 36 -21 94 30 113 8 3 162 5 341 4
306 -2 328 -3 348 -21z m3054 13 c30 -16 37 -28 37 -66 0 -68 99 -63 -1380
-63 -1479 0 -1380 -5 -1380 63 0 37 7 49 35 65 29 16 2657 17 2688 1z m-5201
-16 c18 -16 24 -59 10 -79 -22 -34 -39 -34 -1372 -34 -1333 0 -1350 0 -1372
34 -13 19 -9 59 9 78 15 17 71 18 1361 18 1238 0 1347 -1 1364 -17z m1072 -5
c23 -33 19 -64 -10 -87 -26 -20 -38 -21 -356 -21 l-329 0 -24 25 c-29 28 -31
51 -9 83 l15 22 349 0 349 0 15 -22z m1275 -272 c27 -25 27 -64 -1 -93 l-21
-23 -439 0 c-425 0 -439 1 -458 20 -36 36 -21 94 30 113 8 3 207 5 441 4 404
-2 428 -3 448 -21z m962 -5 c24 -30 24 -52 -2 -85 l-20 -26 -232 0 c-223 0
-231 1 -254 22 -36 34 -26 89 20 108 12 5 123 8 245 7 222 -2 224 -2 243 -26z
m2008 5 c27 -25 27 -70 -1 -96 -22 -20 -30 -20 -915 -20 -880 0 -893 0 -913
20 -36 36 -21 94 30 113 8 3 412 5 896 4 852 -2 883 -3 903 -21z m-6305 -8
c22 -32 20 -55 -9 -83 l-24 -25 -886 0 -886 0 -24 25 c-29 28 -31 51 -9 83
l15 22 904 0 904 0 15 -22z m679 10 c9 -7 19 -25 22 -40 5 -21 1 -33 -19 -52
l-25 -26 -215 0 c-118 0 -226 4 -241 10 -14 5 -29 20 -34 32 -9 25 3 68 22 80
22 14 471 10 490 -4z m1381 -10 c23 -33 19 -64 -10 -87 -26 -21 -37 -21 -456
-21 l-429 0 -25 26 c-20 19 -24 31 -19 52 12 53 6 52 481 52 l443 0 15 -22z
m1580 -269 c33 -26 35 -70 4 -99 -21 -20 -32 -20 -613 -20 -581 0 -592 0 -613
20 -31 29 -29 73 4 99 26 21 35 21 609 21 574 0 583 0 609 -21z m2700 0 c33
-26 35 -70 4 -99 -22 -20 -30 -20 -935 -20 l-914 0 -24 25 c-37 36 -28 86 18
105 12 5 428 9 923 9 897 1 901 1 928 -20z m-6348 3 c42 -27 35 -95 -11 -112
-17 -6 -361 -10 -926 -10 l-900 0 -24 25 c-29 28 -31 51 -9 83 l15 22 922 0
c507 0 927 -4 933 -8z m2068 -14 c23 -33 19 -64 -10 -87 -26 -21 -35 -21 -611
-21 l-584 0 -24 25 c-29 28 -31 51 -9 83 l15 22 604 0 604 0 15 -22z m-2003
-277 c24 -29 24 -53 0 -82 l-19 -24 -925 -3 c-596 -1 -934 1 -951 8 -38 14
-54 55 -35 88 8 14 25 29 39 33 14 4 441 6 948 6 l924 -2 19 -24z m2000 0 c24
-29 24 -53 0 -82 l-19 -24 -830 -3 c-534 -1 -839 1 -856 8 -38 14 -54 55 -35
88 8 14 25 29 39 33 14 4 398 7 853 6 l829 -2 19 -24z m2083 8 c32 -25 34 -64
4 -96 l-21 -23 -842 0 c-833 0 -841 0 -863 20 -31 29 -29 73 4 99 27 21 32 21
859 21 827 0 832 0 859 -21z m2190 0 c33 -26 35 -70 4 -99 -22 -20 -30 -20
-957 -20 l-935 0 -23 22 c-31 29 -30 71 3 97 27 21 31 21 954 21 923 0 927 0
954 -21z m-6335 -270 c56 -20 56 -98 0 -118 -45 -15 -1733 -15 -1778 0 -53 19
-56 98 -4 117 41 15 1740 16 1782 1z m2062 -18 c24 -29 24 -53 0 -82 l-19 -24
-834 -3 c-578 -2 -844 0 -870 8 -27 8 -40 18 -44 35 -10 40 3 72 33 83 18 7
322 10 871 9 l844 -2 19 -24z m2110 11 c31 -26 31 -78 0 -104 -22 -17 -62 -18
-875 -18 -844 0 -852 0 -874 20 -31 29 -29 73 4 99 27 21 32 21 874 21 809 0
849 -1 871 -18z m2110 0 c31 -26 31 -78 0 -104 -22 -17 -63 -18 -908 -18 -604
0 -891 3 -904 11 -45 24 -43 100 3 119 13 5 400 9 904 9 843 1 883 0 905 -17z
m-6382 -286 c27 -24 27 -68 0 -92 -20 -18 -48 -19 -799 -19 -751 0 -779 1
-799 19 -37 34 -22 90 29 109 8 3 360 5 781 4 739 -2 768 -3 788 -21z m2162
-5 c24 -29 24 -53 0 -82 l-19 -24 -900 0 c-871 0 -901 1 -921 19 -37 34 -22
90 29 109 8 3 415 5 903 4 l889 -2 19 -24z m2199 9 c11 -11 20 -33 20 -50 0
-17 -9 -39 -20 -50 -20 -20 -33 -20 -914 -20 -889 0 -893 0 -920 21 -17 13
-26 30 -26 49 0 19 9 36 26 49 27 21 31 21 920 21 881 0 894 0 914 -20z m1920
0 c11 -11 20 -33 20 -50 0 -17 -9 -39 -20 -50 -20 -20 -33 -20 -790 -20 -566
0 -776 3 -795 12 -45 20 -46 95 -3 116 16 7 258 11 796 11 759 1 772 1 792
-19z m-7069 -289 c24 -29 24 -53 0 -82 l-19 -24 -289 -3 c-316 -4 -358 1 -369
43 -9 37 2 70 28 83 16 8 119 10 326 9 l304 -2 19 -24z m2950 0 c24 -29 24
-53 0 -82 l-19 -24 -790 -3 c-508 -1 -799 1 -816 8 -55 20 -57 98 -4 120 14 5
354 8 816 7 l794 -2 19 -24z m1992 18 c29 -16 37 -28 37 -61 0 -17 -9 -34 -26
-47 -27 -21 -33 -21 -819 -21 -786 0 -792 0 -819 21 -33 26 -35 70 -4 99 22
20 31 20 816 20 578 0 799 -3 815 -11z m1978 -7 c15 -13 22 -30 22 -52 0 -22
-7 -39 -22 -52 -21 -17 -47 -18 -326 -18 -291 0 -303 1 -329 21 -17 13 -26 30
-26 49 0 19 9 36 26 49 26 20 38 21 329 21 279 0 305 -1 326 -18z m-5762 -286
c27 -24 27 -68 0 -92 -20 -18 -43 -19 -504 -19 -461 0 -484 1 -504 19 -37 34
-22 90 29 109 8 3 227 5 486 4 449 -2 473 -3 493 -21z m1790 0 c26 -24 27 -57
2 -87 l-19 -24 -669 -2 c-524 -2 -673 0 -693 10 -31 15 -49 61 -34 85 26 42
30 42 725 39 640 -2 668 -3 688 -21z m1759 4 c31 -29 29 -73 -4 -99 -26 -21
-34 -21 -694 -21 -660 0 -668 0 -694 21 -33 26 -35 70 -4 99 21 20 31 20 698
20 667 0 677 0 698 -20z m1402 0 c20 -20 26 -65 12 -86 -21 -32 -52 -34 -517
-34 -465 0 -496 2 -517 34 -14 21 -8 66 12 86 19 19 33 20 505 20 472 0 486
-1 505 -20z m-4719 -289 c24 -29 24 -53 0 -82 l-19 -24 -774 0 c-425 -1 -783
1 -796 3 -34 7 -58 47 -46 80 19 53 -1 52 837 49 l779 -2 19 -24z m853 19 c52
-19 47 -102 -6 -118 -42 -13 -501 -13 -550 -1 -40 10 -53 33 -46 80 6 44 35
49 315 49 144 0 273 -4 287 -10z m705 -14 c26 -24 27 -57 2 -87 -19 -24 -21
-24 -211 -24 -189 1 -193 1 -211 24 -33 40 -19 85 31 104 8 3 94 5 191 4 158
-2 179 -4 198 -21z m781 4 c29 -29 26 -74 -6 -99 -25 -19 -40 -21 -204 -21
-164 0 -179 2 -204 21 -33 26 -35 70 -4 99 20 19 34 20 210 20 175 0 189 -1
208 -20z m875 -5 c30 -29 32 -55 6 -86 l-19 -24 -291 0 c-260 0 -292 2 -307
17 -25 25 -22 77 5 100 21 16 46 18 303 18 l279 0 24 -25z m1883 5 c31 -29 29
-73 -4 -99 -26 -21 -33 -21 -804 -21 -771 0 -778 0 -804 21 -32 25 -34 64 -4
96 l21 23 787 0 c777 0 786 0 808 -20z m-5825 -271 c12 -7 25 -17 29 -23 13
-19 9 -59 -9 -78 -15 -17 -45 -18 -529 -18 l-513 0 -15 22 c-22 32 -20 55 9
83 l24 25 491 0 c351 0 498 -3 513 -11z m1522 1 c46 -17 53 -85 11 -112 -6 -4
-286 -8 -623 -8 l-612 0 -15 22 c-22 32 -20 55 9 83 l24 25 590 0 c362 0 600
-4 616 -10z m759 -11 c29 -23 33 -54 10 -87 -15 -22 -19 -22 -229 -22 -241 0
-249 2 -243 69 5 56 24 61 244 61 179 0 193 -1 218 -21z m825 -5 c26 -33 26
-55 2 -85 -19 -24 -23 -24 -223 -27 -195 -3 -205 -2 -231 18 -33 26 -36 71 -7
100 19 19 33 20 229 20 l210 0 20 -26z m1541 6 c26 -26 26 -72 -1 -96 -20 -18
-45 -19 -631 -19 l-610 0 -19 24 c-24 30 -24 52 2 85 l20 26 610 0 c596 0 609
0 629 -20z m1317 -2 c29 -27 30 -69 2 -94 -20 -18 -45 -19 -508 -22 -267 -1
-496 0 -508 3 -53 13 -71 77 -33 115 19 19 33 20 522 20 501 0 502 0 525 -22z
m-5863 -279 c30 -24 34 -63 9 -91 -15 -17 -46 -18 -566 -18 -498 0 -552 2
-569 17 -32 28 -19 91 22 106 8 3 254 6 546 6 523 1 532 1 558 -20z m1266 8
c19 -9 26 -22 28 -48 6 -71 21 -69 -455 -69 -383 0 -428 2 -445 17 -18 16 -24
59 -10 79 21 31 51 33 452 34 306 0 411 -3 430 -13z m914 -8 c29 -23 33 -54
10 -87 -15 -22 -18 -22 -280 -22 -251 0 -265 1 -284 20 -27 27 -25 56 5 85
l24 25 249 0 c237 0 251 -1 276 -21z m926 1 c26 -26 26 -72 -1 -96 -20 -18
-39 -19 -279 -19 -240 0 -259 1 -279 19 -27 24 -27 70 -1 96 19 19 33 20 280
20 247 0 261 -1 280 -20z m1228 4 c43 -30 23 -106 -31 -119 -12 -3 -205 -4
-429 -3 -368 3 -409 5 -424 20 -23 22 -22 73 1 98 18 19 30 20 439 20 365 0
425 -2 444 -16z m1513 5 c48 -25 42 -97 -10 -119 -18 -7 -190 -10 -558 -8
-506 3 -532 4 -552 22 -27 24 -27 70 -1 96 20 20 33 20 561 20 362 0 547 -4
560 -11z m-5665 -293 c19 -26 18 -65 -3 -88 -15 -17 -48 -18 -616 -18 -545 0
-602 2 -619 17 -32 28 -19 91 22 106 8 3 282 5 608 4 575 -2 594 -3 608 -21z
m1998 3 c29 -23 33 -54 10 -87 l-15 -22 -369 0 -369 0 -15 22 c-23 33 -19 64
10 87 26 20 38 21 374 21 336 0 348 -1 374 -21z m1126 1 c26 -26 26 -72 -1
-96 -20 -18 -41 -19 -379 -19 -338 0 -359 1 -379 19 -27 24 -27 70 -1 96 19
19 33 20 380 20 347 0 361 -1 380 -20z m2471 9 c45 -23 40 -96 -7 -118 -34
-15 -1147 -16 -1192 0 -52 18 -61 91 -15 118 25 15 1187 15 1214 0z m-5628
-280 c12 -7 25 -17 29 -23 14 -20 8 -63 -10 -80 -17 -15 -66 -16 -548 -14
l-528 3 -15 26 c-18 32 -8 72 21 87 33 16 1021 16 1051 1z m2031 -10 c31 -25
34 -61 6 -89 -20 -20 -31 -20 -627 -18 l-607 3 -15 26 c-18 32 -8 72 21 87 16
7 206 11 609 11 579 1 587 1 613 -20z m1604 5 c29 -20 30 -74 1 -100 -20 -18
-45 -19 -619 -19 -574 0 -599 1 -619 19 -27 24 -27 70 -1 96 20 20 33 20 618
20 525 0 600 -2 620 -16z m1860 0 c29 -20 30 -74 1 -100 -20 -18 -44 -19 -539
-19 -495 0 -519 1 -539 19 -29 26 -28 80 1 100 20 14 88 16 538 16 450 0 518
-2 538 -16z m-5580 -280 c27 -18 30 -69 5 -96 -15 -17 -40 -18 -364 -18 -303
0 -350 2 -363 16 -27 26 -24 71 6 97 18 15 51 17 357 17 288 0 340 -2 359 -16z
m2116 -5 c31 -25 34 -61 6 -89 -20 -20 -33 -20 -902 -20 -486 0 -888 4 -894 8
-13 9 -34 46 -34 62 0 6 11 22 25 35 l24 25 874 0 c869 0 874 0 901 -21z
m2176 1 c25 -25 26 -61 1 -91 l-19 -24 -885 0 c-856 0 -886 1 -906 19 -27 24
-27 70 -1 96 20 20 33 20 905 20 872 0 885 0 905 -20z m1037 -2 c28 -26 29
-58 4 -89 l-19 -24 -324 -3 c-207 -2 -336 0 -359 7 -57 17 -70 67 -31 114 14
16 44 17 360 17 341 0 346 0 369 -22z m-4080 -280 c28 -26 30 -61 3 -88 -19
-19 -33 -20 -542 -20 -580 0 -558 -3 -558 66 0 66 -14 64 559 64 515 0 515 0
538 -22z m870 0 c28 -26 30 -61 3 -88 -17 -17 -33 -20 -125 -20 -92 0 -108 3
-125 20 -11 11 -20 31 -20 45 0 14 9 34 20 45 17 17 33 20 122 20 91 0 104 -2
125 -22z m611 6 c29 -20 30 -74 1 -100 -18 -16 -37 -19 -124 -19 -116 0 -145
13 -145 67 0 55 28 68 143 68 77 0 108 -4 125 -16z m1715 -16 c29 -38 9 -84
-42 -99 -24 -7 -202 -9 -532 -7 -472 3 -498 4 -518 22 -27 24 -27 70 -1 96 20
20 31 20 547 18 l526 -3 20 -27z m-3544 -274 c26 -33 27 -58 1 -84 -19 -19
-33 -20 -488 -20 -454 0 -469 1 -487 20 -24 27 -22 70 5 92 21 17 53 18 485
18 l464 0 20 -26z m1218 4 c28 -26 30 -61 3 -88 -19 -19 -33 -20 -352 -20
-183 0 -338 4 -344 8 -13 8 -34 46 -34 60 0 5 9 21 21 36 l20 26 332 0 c326 0
331 0 354 -22z m1073 2 c24 -24 26 -57 4 -88 l-15 -22 -341 0 c-304 0 -343 2
-360 17 -24 21 -23 68 2 93 19 19 33 20 355 20 322 0 336 -1 355 -20z m1490
-2 c25 -28 26 -62 0 -88 -19 -19 -33 -20 -494 -20 l-475 0 -15 22 c-22 31 -20
64 4 88 19 19 33 20 490 20 l469 0 21 -22z m-4005 -278 c9 -10 18 -31 18 -45
0 -14 -9 -35 -18 -45 -17 -19 -32 -20 -248 -20 -200 0 -233 2 -249 17 -24 21
-23 68 2 93 19 19 33 20 248 20 215 0 230 -1 247 -20z m1432 -2 c28 -26 30
-61 3 -88 -19 -19 -33 -20 -532 -20 -569 0 -548 -2 -548 66 0 65 -13 64 549
64 504 0 505 0 528 -22z m1455 -9 c21 -28 18 -57 -8 -84 -13 -13 -85 -15 -531
-15 -467 0 -518 2 -535 17 -24 21 -23 68 2 93 20 20 31 20 537 18 l516 -3 19
-26z m863 11 c9 -10 18 -31 18 -45 0 -14 -9 -35 -18 -45 -17 -19 -32 -20 -252
-20 -220 0 -234 1 -253 20 -26 26 -25 60 0 88 20 21 27 22 254 22 219 0 234
-1 251 -20z m-2447 -276 c27 -18 30 -69 5 -96 -15 -17 -46 -18 -556 -18 -601
0 -577 -3 -577 66 0 66 -15 64 575 64 464 0 533 -2 553 -16z m1757 -4 c9 -10
18 -31 18 -45 0 -14 -9 -35 -18 -45 -18 -19 -34 -20 -561 -20 l-543 0 -20 27
c-23 28 -21 54 7 86 14 16 53 17 557 17 526 0 542 -1 560 -20z"/>
</g>
</svg>
