<?xml version="1.0" standalone="no"?>
<!DOCTYPE svg PUBLIC "-//W3C//DTD SVG 20010904//EN"
 "http://www.w3.org/TR/2001/REC-SVG-20010904/DTD/svg10.dtd">
<svg version="1.0" xmlns="http://www.w3.org/2000/svg"
 width="1024.000000pt" height="1024.000000pt" viewBox="0 0 1024.000000 1024.000000"
 preserveAspectRatio="xMidYMid meet">
<metadata>
Created by potrace 1.11, written by Peter Selinger 2001-2013
</metadata>
<g transform="translate(0.000000,1024.000000) scale(0.100000,-0.100000)"
fill="#000000" stroke="none">
<path d="M0 5120 l0 -5120 5120 0 5120 0 0 5120 0 5120 -5120 0 -5120 0 0
-5120z m2500 1185 l0 -185 -310 0 -310 0 0 -855 0 -855 -217 2 -218 3 -3 853
-2 852 -310 0 -310 0 0 185 0 185 840 0 840 0 0 -185z m1611 162 c227 -54 395
-186 503 -396 85 -164 119 -332 119 -586 2 -540 -224 -928 -603 -1036 -111
-32 -265 -40 -715 -37 l-430 3 -3 1038 -2 1038 532 -4 c442 -3 544 -6 599 -20z
m2282 -19 c8 -24 172 -489 366 -1035 193 -545 351 -994 351 -997 0 -3 -105 -6
-234 -6 l-235 0 -41 133 c-23 72 -53 169 -68 215 l-26 82 -381 0 -380 0 -71
-212 -70 -213 -228 -3 c-214 -2 -228 -1 -224 15 8 29 728 2046 734 2055 3 4
115 8 249 8 l243 0 15 -42z m1637 -353 l0 -395 405 0 405 0 0 395 0 395 215 0
215 0 0 -1040 0 -1040 -215 0 -215 0 0 465 0 465 -405 0 -405 0 0 -465 0 -465
-215 0 -215 0 0 1040 0 1040 215 0 215 0 0 -395z"/>
<path d="M3410 5454 l0 -675 258 3 c313 4 336 10 443 117 139 140 200 375 178
688 -14 214 -67 365 -155 441 -91 81 -201 102 -526 102 l-198 0 0 -676z"/>
<path d="M5994 5600 l-131 -400 258 0 c143 0 259 3 259 7 0 13 -243 778 -249
785 -4 4 -65 -172 -137 -392z"/>
</g>
</svg>
